<svg id="visual" viewBox="0 0 1920 1080" width="1920" height="1080" xmlns="http://www.w3.org/2000/svg" xmlns:xlink="http://www.w3.org/1999/xlink" version="1.1"><rect x="0" y="0" width="1920" height="1080" fill="#EADDCD"></rect><path d="M0 213L45.7 182.8C91.3 152.7 182.7 92.3 274.2 78.8C365.7 65.3 457.3 98.7 548.8 101C640.3 103.3 731.7 74.7 823 63.7C914.3 52.7 1005.7 59.3 1097 71.8C1188.3 84.3 1279.7 102.7 1371.2 98.3C1462.7 94 1554.3 67 1645.8 70.2C1737.3 73.3 1828.7 106.7 1874.3 123.3L1920 140L1920 0L1874.3 0C1828.7 0 1737.3 0 1645.8 0C1554.3 0 1462.7 0 1371.2 0C1279.7 0 1188.3 0 1097 0C1005.7 0 914.3 0 823 0C731.7 0 640.3 0 548.8 0C457.3 0 365.7 0 274.2 0C182.7 0 91.3 0 45.7 0L0 0Z" fill="#513C33" stroke-linecap="round" stroke-linejoin="miter"></path></svg>